<mxfile host="Electron" modified="2024-09-25T16:15:46.065Z" agent="Mozilla/5.0 (Macintosh; Intel Mac OS X 10_15_7) AppleWebKit/537.36 (KHTML, like Gecko) draw.io/24.4.0 Chrome/120.0.6099.109 Electron/28.1.0 Safari/537.36" etag="2ABnCMqG0KjqTPgTNkTD" version="24.4.0" type="device">
  <diagram id="OKqs9bisLQK5m9M_WVll" name="Page-1">
    <mxGraphModel dx="1500" dy="837" grid="0" gridSize="10" guides="1" tooltips="1" connect="1" arrows="1" fold="1" page="0" pageScale="1" pageWidth="1169" pageHeight="827" math="0" shadow="0">
      <root>
        <mxCell id="0" />
        <mxCell id="1" parent="0" />
        <mxCell id="h3WxbCLKSJILhZF0xovk-1" value="Habit" style="swimlane;fontStyle=1;align=center;verticalAlign=top;childLayout=stackLayout;horizontal=1;startSize=26;horizontalStack=0;resizeParent=1;resizeParentMax=0;resizeLast=0;collapsible=1;marginBottom=0;swimlaneFillColor=#ffffff;strokeColor=#FF8000;strokeWidth=1;fillColor=none;fontSize=13;fontColor=#FF8000;" vertex="1" parent="1">
          <mxGeometry x="-142" y="555.5" width="210" height="160" as="geometry">
            <mxRectangle x="10" y="120" width="60" height="26" as="alternateBounds" />
          </mxGeometry>
        </mxCell>
        <mxCell id="h3WxbCLKSJILhZF0xovk-2" value="+ habitID: int&#xa;+ habitName: string&#xa;+ habitHistory: reference" style="text;strokeColor=none;fillColor=none;align=left;verticalAlign=top;spacingLeft=4;spacingRight=4;overflow=hidden;rotatable=0;points=[[0,0.5],[1,0.5]];portConstraint=eastwest;fontColor=#000066;" vertex="1" parent="h3WxbCLKSJILhZF0xovk-1">
          <mxGeometry y="26" width="210" height="54" as="geometry" />
        </mxCell>
        <mxCell id="h3WxbCLKSJILhZF0xovk-3" value="" style="line;strokeWidth=1;fillColor=none;align=left;verticalAlign=middle;spacingTop=-1;spacingLeft=3;spacingRight=3;rotatable=0;labelPosition=right;points=[];portConstraint=eastwest;fontColor=#000066;strokeColor=#FF8000;" vertex="1" parent="h3WxbCLKSJILhZF0xovk-1">
          <mxGeometry y="80" width="210" height="8" as="geometry" />
        </mxCell>
        <mxCell id="h3WxbCLKSJILhZF0xovk-4" value="+ newHabit(string): Habit *&#xa;+ displayHabit(): void&#xa;+ deleteHabit(Habit *, int *): void&#xa;+ checkin(HabitHistory *): void" style="text;strokeColor=none;fillColor=none;align=left;verticalAlign=top;spacingLeft=4;spacingRight=4;overflow=hidden;rotatable=0;points=[[0,0.5],[1,0.5]];portConstraint=eastwest;fontColor=#000066;" vertex="1" parent="h3WxbCLKSJILhZF0xovk-1">
          <mxGeometry y="88" width="210" height="72" as="geometry" />
        </mxCell>
        <mxCell id="h3WxbCLKSJILhZF0xovk-5" value="" style="endArrow=diamondThin;endFill=0;endSize=24;html=1;strokeColor=#FF8000;fontSize=13;fontColor=#000066;exitX=0.5;exitY=0;entryX=0.447;entryY=1;entryPerimeter=0;" edge="1" parent="1" source="h3WxbCLKSJILhZF0xovk-1" target="h3WxbCLKSJILhZF0xovk-22">
          <mxGeometry width="160" relative="1" as="geometry">
            <mxPoint x="-122" y="737.5" as="sourcePoint" />
            <mxPoint x="-38" y="487.5" as="targetPoint" />
          </mxGeometry>
        </mxCell>
        <mxCell id="h3WxbCLKSJILhZF0xovk-6" value="" style="endArrow=diamondThin;endFill=1;endSize=24;html=1;strokeColor=#FF8000;fontSize=13;fontColor=#000066;exitX=0;exitY=0.5;" edge="1" parent="1" source="h3WxbCLKSJILhZF0xovk-16" target="h3WxbCLKSJILhZF0xovk-2">
          <mxGeometry width="160" relative="1" as="geometry">
            <mxPoint x="84" y="595.5" as="sourcePoint" />
            <mxPoint x="28" y="596.5" as="targetPoint" />
          </mxGeometry>
        </mxCell>
        <mxCell id="h3WxbCLKSJILhZF0xovk-7" value="1..1" style="text;html=1;resizable=0;points=[];autosize=1;align=left;verticalAlign=top;spacingTop=-4;fontSize=13;fontColor=#000066;" vertex="1" parent="1">
          <mxGeometry x="-32" y="435.5" width="40" height="20" as="geometry" />
        </mxCell>
        <mxCell id="h3WxbCLKSJILhZF0xovk-8" value="0..*" style="text;html=1;resizable=0;points=[];autosize=1;align=left;verticalAlign=top;spacingTop=-4;fontSize=13;fontColor=#FF8000;" vertex="1" parent="1">
          <mxGeometry x="-66" y="537.5" width="40" height="20" as="geometry" />
        </mxCell>
        <mxCell id="h3WxbCLKSJILhZF0xovk-9" value="1..1" style="text;html=1;resizable=0;points=[];autosize=1;align=left;verticalAlign=top;spacingTop=-4;fontSize=13;fontColor=#FF8000;" vertex="1" parent="1">
          <mxGeometry x="113" y="589.5" width="40" height="20" as="geometry" />
        </mxCell>
        <mxCell id="h3WxbCLKSJILhZF0xovk-10" value="1..1" style="text;html=1;resizable=0;points=[];autosize=1;align=left;verticalAlign=top;spacingTop=-4;fontSize=13;fontColor=#FF8000;" vertex="1" parent="1">
          <mxGeometry x="69" y="613.5" width="40" height="20" as="geometry" />
        </mxCell>
        <mxCell id="h3WxbCLKSJILhZF0xovk-11" value="Checkin" style="swimlane;fontStyle=1;align=center;verticalAlign=top;childLayout=stackLayout;horizontal=1;startSize=26;horizontalStack=0;resizeParent=1;resizeParentMax=0;resizeLast=0;collapsible=1;marginBottom=0;swimlaneFillColor=#ffffff;strokeColor=#FF8000;strokeWidth=1;fillColor=none;fontSize=13;fontColor=#FF8000;" vertex="1" parent="1">
          <mxGeometry x="131" y="731.5" width="300" height="150" as="geometry">
            <mxRectangle x="10" y="120" width="60" height="26" as="alternateBounds" />
          </mxGeometry>
        </mxCell>
        <mxCell id="h3WxbCLKSJILhZF0xovk-12" value="+ habitCheckinID: integer&#xa;+ checkinDate: date&#xa;+ comments: list(Comment)" style="text;strokeColor=none;fillColor=none;align=left;verticalAlign=top;spacingLeft=4;spacingRight=4;overflow=hidden;rotatable=0;points=[[0,0.5],[1,0.5]];portConstraint=eastwest;fontColor=#000066;" vertex="1" parent="h3WxbCLKSJILhZF0xovk-11">
          <mxGeometry y="26" width="300" height="54" as="geometry" />
        </mxCell>
        <mxCell id="h3WxbCLKSJILhZF0xovk-13" value="" style="line;strokeWidth=1;fillColor=none;align=left;verticalAlign=middle;spacingTop=-1;spacingLeft=3;spacingRight=3;rotatable=0;labelPosition=right;points=[];portConstraint=eastwest;fontColor=#000066;strokeColor=#FF8000;" vertex="1" parent="h3WxbCLKSJILhZF0xovk-11">
          <mxGeometry y="80" width="300" height="8" as="geometry" />
        </mxCell>
        <mxCell id="h3WxbCLKSJILhZF0xovk-14" value="+ addComment(Comment): Comment&#xa;+ displayCheckin(habitCheckinID):void&#xa;+ addComment(comments, Person *):Comment *" style="text;strokeColor=none;fillColor=none;align=left;verticalAlign=top;spacingLeft=4;spacingRight=4;overflow=hidden;rotatable=0;points=[[0,0.5],[1,0.5]];portConstraint=eastwest;fontColor=#000066;" vertex="1" parent="h3WxbCLKSJILhZF0xovk-11">
          <mxGeometry y="88" width="300" height="62" as="geometry" />
        </mxCell>
        <mxCell id="h3WxbCLKSJILhZF0xovk-15" value="HabitHistory" style="swimlane;fontStyle=1;align=center;verticalAlign=top;childLayout=stackLayout;horizontal=1;startSize=26;horizontalStack=0;resizeParent=1;resizeParentMax=0;resizeLast=0;collapsible=1;marginBottom=0;swimlaneFillColor=#ffffff;strokeColor=#FF8000;strokeWidth=1;fillColor=none;fontSize=13;fontColor=#FF8000;" vertex="1" parent="1">
          <mxGeometry x="139" y="555.5" width="270" height="130" as="geometry" />
        </mxCell>
        <mxCell id="h3WxbCLKSJILhZF0xovk-16" value="+ habitID: int&#xa;+ habitCheckins: list(Checkin)" style="text;strokeColor=none;fillColor=none;align=left;verticalAlign=top;spacingLeft=4;spacingRight=4;overflow=hidden;rotatable=0;points=[[0,0.5],[1,0.5]];portConstraint=eastwest;fontColor=#000066;" vertex="1" parent="h3WxbCLKSJILhZF0xovk-15">
          <mxGeometry y="26" width="270" height="54" as="geometry" />
        </mxCell>
        <mxCell id="h3WxbCLKSJILhZF0xovk-17" value="" style="line;strokeWidth=1;fillColor=none;align=left;verticalAlign=middle;spacingTop=-1;spacingLeft=3;spacingRight=3;rotatable=0;labelPosition=right;points=[];portConstraint=eastwest;fontColor=#000066;strokeColor=#FF8000;" vertex="1" parent="h3WxbCLKSJILhZF0xovk-15">
          <mxGeometry y="80" width="270" height="8" as="geometry" />
        </mxCell>
        <mxCell id="h3WxbCLKSJILhZF0xovk-18" value="+ newCheckin(): Checkin *&#xa;+ displayHistory(habitCheckins): void" style="text;strokeColor=none;fillColor=none;align=left;verticalAlign=top;spacingLeft=4;spacingRight=4;overflow=hidden;rotatable=0;points=[[0,0.5],[1,0.5]];portConstraint=eastwest;fontColor=#000066;" vertex="1" parent="h3WxbCLKSJILhZF0xovk-15">
          <mxGeometry y="88" width="270" height="42" as="geometry" />
        </mxCell>
        <mxCell id="h3WxbCLKSJILhZF0xovk-19" value="User" style="swimlane;fontStyle=1;align=center;verticalAlign=top;childLayout=stackLayout;horizontal=1;startSize=26;horizontalStack=0;resizeParent=1;resizeParentMax=0;resizeLast=0;collapsible=1;marginBottom=0;swimlaneFillColor=#ffffff;strokeColor=#FF8000;strokeWidth=1;fillColor=none;fontSize=13;fontColor=#FF8000;" vertex="1" parent="1">
          <mxGeometry x="-122" y="358.5" width="190" height="120" as="geometry" />
        </mxCell>
        <mxCell id="h3WxbCLKSJILhZF0xovk-20" value="+ habits: list(Habit)&#xa;+ habitNum: int&#xa;+ coach: Coach *" style="text;strokeColor=none;fillColor=none;align=left;verticalAlign=top;spacingLeft=4;spacingRight=4;overflow=hidden;rotatable=0;points=[[0,0.5],[1,0.5]];portConstraint=eastwest;fontColor=#000066;" vertex="1" parent="h3WxbCLKSJILhZF0xovk-19">
          <mxGeometry y="26" width="190" height="46" as="geometry" />
        </mxCell>
        <mxCell id="h3WxbCLKSJILhZF0xovk-21" value="" style="line;strokeWidth=1;fillColor=none;align=left;verticalAlign=middle;spacingTop=-1;spacingLeft=3;spacingRight=3;rotatable=0;labelPosition=right;points=[];portConstraint=eastwest;fontColor=#000066;strokeColor=#FF8000;" vertex="1" parent="h3WxbCLKSJILhZF0xovk-19">
          <mxGeometry y="72" width="190" height="8" as="geometry" />
        </mxCell>
        <mxCell id="h3WxbCLKSJILhZF0xovk-22" value="+ newUser(string): int&#xa;+ displayHabits(habits): list(habit)" style="text;strokeColor=none;fillColor=none;align=left;verticalAlign=top;spacingLeft=4;spacingRight=4;overflow=hidden;rotatable=0;points=[[0,0.5],[1,0.5]];portConstraint=eastwest;fontColor=#000066;" vertex="1" parent="h3WxbCLKSJILhZF0xovk-19">
          <mxGeometry y="80" width="190" height="40" as="geometry" />
        </mxCell>
        <mxCell id="h3WxbCLKSJILhZF0xovk-23" value="Coach" style="swimlane;fontStyle=1;align=center;verticalAlign=top;childLayout=stackLayout;horizontal=1;startSize=26;horizontalStack=0;resizeParent=1;resizeParentMax=0;resizeLast=0;collapsible=1;marginBottom=0;swimlaneFillColor=#ffffff;strokeColor=#FF8000;strokeWidth=1;fillColor=none;fontSize=13;fontColor=#FF8000;" vertex="1" parent="1">
          <mxGeometry x="388" y="366.5" width="290" height="170" as="geometry" />
        </mxCell>
        <mxCell id="h3WxbCLKSJILhZF0xovk-24" value="+ users: list(User)" style="text;strokeColor=none;fillColor=none;align=left;verticalAlign=top;spacingLeft=4;spacingRight=4;overflow=hidden;rotatable=0;points=[[0,0.5],[1,0.5]];portConstraint=eastwest;fontColor=#000066;" vertex="1" parent="h3WxbCLKSJILhZF0xovk-23">
          <mxGeometry y="26" width="290" height="34" as="geometry" />
        </mxCell>
        <mxCell id="h3WxbCLKSJILhZF0xovk-25" value="" style="line;strokeWidth=1;fillColor=none;align=left;verticalAlign=middle;spacingTop=-1;spacingLeft=3;spacingRight=3;rotatable=0;labelPosition=right;points=[];portConstraint=eastwest;fontColor=#000066;strokeColor=#FF8000;" vertex="1" parent="h3WxbCLKSJILhZF0xovk-23">
          <mxGeometry y="60" width="290" height="8" as="geometry" />
        </mxCell>
        <mxCell id="h3WxbCLKSJILhZF0xovk-26" value="+ newCoach(string): int&#xa;+ displayAllUsers(users): bool&#xa;+ addUser(users, userID): bool&#xa;+ deleteUser(users, userID): bool&#xa;+ viewUserHabits(User): list(Habit)&#xa;+ checkinPushNotification(UserID, Checkin):void" style="text;strokeColor=none;fillColor=none;align=left;verticalAlign=top;spacingLeft=4;spacingRight=4;overflow=hidden;rotatable=0;points=[[0,0.5],[1,0.5]];portConstraint=eastwest;fontColor=#000066;" vertex="1" parent="h3WxbCLKSJILhZF0xovk-23">
          <mxGeometry y="68" width="290" height="102" as="geometry" />
        </mxCell>
        <mxCell id="h3WxbCLKSJILhZF0xovk-27" value="1..1" style="text;html=1;resizable=0;points=[];autosize=1;align=left;verticalAlign=top;spacingTop=-4;fontSize=13;fontColor=#FF8000;" vertex="1" parent="1">
          <mxGeometry x="-28" y="479.5" width="40" height="20" as="geometry" />
        </mxCell>
        <mxCell id="h3WxbCLKSJILhZF0xovk-28" value="" style="endArrow=diamondThin;endFill=0;endSize=24;html=1;strokeColor=#FF8000;fontSize=13;fontColor=#000066;spacing=0;" edge="1" parent="1" source="h3WxbCLKSJILhZF0xovk-11" target="h3WxbCLKSJILhZF0xovk-18">
          <mxGeometry width="160" relative="1" as="geometry">
            <mxPoint x="249" y="764.5" as="sourcePoint" />
            <mxPoint x="198" y="530.5" as="targetPoint" />
          </mxGeometry>
        </mxCell>
        <mxCell id="h3WxbCLKSJILhZF0xovk-29" value="1..1" style="text;html=1;resizable=0;points=[];autosize=1;align=left;verticalAlign=top;spacingTop=-4;fontSize=13;fontColor=#FF8000;" vertex="1" parent="1">
          <mxGeometry x="286" y="685.5" width="40" height="20" as="geometry" />
        </mxCell>
        <mxCell id="h3WxbCLKSJILhZF0xovk-30" value="0..*" style="text;html=1;resizable=0;points=[];autosize=1;align=left;verticalAlign=top;spacingTop=-4;fontSize=13;fontColor=#FF8000;" vertex="1" parent="1">
          <mxGeometry x="251" y="713.5" width="40" height="20" as="geometry" />
        </mxCell>
        <mxCell id="h3WxbCLKSJILhZF0xovk-31" value="" style="endArrow=block;endSize=16;endFill=0;html=1;strokeColor=#FF8000;fontSize=13;fontColor=#000066;exitX=0.5;exitY=0;" edge="1" parent="1" source="h3WxbCLKSJILhZF0xovk-19" target="h3WxbCLKSJILhZF0xovk-40">
          <mxGeometry width="160" relative="1" as="geometry">
            <mxPoint x="108" y="447.5" as="sourcePoint" />
            <mxPoint x="138" y="296.5" as="targetPoint" />
          </mxGeometry>
        </mxCell>
        <mxCell id="h3WxbCLKSJILhZF0xovk-32" value="" style="endArrow=block;endSize=16;endFill=0;html=1;strokeColor=#FF8000;fontSize=13;fontColor=#000066;exitX=0.5;exitY=0;" edge="1" parent="1" source="h3WxbCLKSJILhZF0xovk-23" target="h3WxbCLKSJILhZF0xovk-39">
          <mxGeometry width="160" relative="1" as="geometry">
            <mxPoint x="-17" y="368.5" as="sourcePoint" />
            <mxPoint x="338" y="296.5" as="targetPoint" />
          </mxGeometry>
        </mxCell>
        <mxCell id="h3WxbCLKSJILhZF0xovk-33" value="" style="endArrow=diamondThin;endFill=0;endSize=24;html=1;strokeColor=#FF8000;fontSize=13;fontColor=#000066;entryX=1;entryY=0.5;exitX=0.005;exitY=0.378;exitPerimeter=0;" edge="1" parent="1" source="h3WxbCLKSJILhZF0xovk-44" target="h3WxbCLKSJILhZF0xovk-12">
          <mxGeometry width="160" relative="1" as="geometry">
            <mxPoint x="521" y="783.5" as="sourcePoint" />
            <mxPoint x="261" y="695.5" as="targetPoint" />
          </mxGeometry>
        </mxCell>
        <mxCell id="h3WxbCLKSJILhZF0xovk-34" value="1..1" style="text;html=1;resizable=0;points=[];autosize=1;align=left;verticalAlign=top;spacingTop=-4;fontSize=13;fontColor=#FF8000;" vertex="1" parent="1">
          <mxGeometry x="371" y="759.5" width="40" height="20" as="geometry" />
        </mxCell>
        <mxCell id="h3WxbCLKSJILhZF0xovk-35" value="0..*" style="text;html=1;resizable=0;points=[];autosize=1;align=left;verticalAlign=top;spacingTop=-4;fontSize=13;fontColor=#FF8000;" vertex="1" parent="1">
          <mxGeometry x="435" y="790.5" width="40" height="20" as="geometry" />
        </mxCell>
        <mxCell id="h3WxbCLKSJILhZF0xovk-36" value="" style="endArrow=diamondThin;endFill=0;endSize=24;html=1;strokeColor=#FF8000;fontSize=13;fontColor=#000066;exitX=0.958;exitY=0.5;exitPerimeter=0;entryX=0.005;entryY=1.147;entryPerimeter=0;" edge="1" parent="1" source="h3WxbCLKSJILhZF0xovk-21" target="h3WxbCLKSJILhZF0xovk-24">
          <mxGeometry width="160" relative="1" as="geometry">
            <mxPoint x="-27" y="565.5" as="sourcePoint" />
            <mxPoint x="-27" y="472.5" as="targetPoint" />
          </mxGeometry>
        </mxCell>
        <mxCell id="h3WxbCLKSJILhZF0xovk-37" value="0..1" style="text;html=1;resizable=0;points=[];autosize=1;align=left;verticalAlign=top;spacingTop=-4;fontSize=13;fontColor=#FF8000;" vertex="1" parent="1">
          <mxGeometry x="362" y="405.5" width="40" height="20" as="geometry" />
        </mxCell>
        <mxCell id="h3WxbCLKSJILhZF0xovk-38" value="0..*" style="text;html=1;resizable=0;points=[];autosize=1;align=left;verticalAlign=top;spacingTop=-4;fontSize=13;fontColor=#FF8000;" vertex="1" parent="1">
          <mxGeometry x="69" y="411.5" width="40" height="20" as="geometry" />
        </mxCell>
        <mxCell id="h3WxbCLKSJILhZF0xovk-39" value="Person" style="swimlane;fontStyle=1;align=center;verticalAlign=top;childLayout=stackLayout;horizontal=1;startSize=26;horizontalStack=0;resizeParent=1;resizeParentMax=0;resizeLast=0;collapsible=1;marginBottom=0;swimlaneFillColor=#ffffff;strokeColor=#FF8000;fillColor=#ffffff;fontFamily=Tahoma;fontSize=13;fontColor=#FF8000;" vertex="1" parent="1">
          <mxGeometry x="139" y="251.5" width="199" height="104" as="geometry" />
        </mxCell>
        <mxCell id="h3WxbCLKSJILhZF0xovk-40" value="+ ID: int&#xa;+ name: string" style="text;strokeColor=none;fillColor=none;align=left;verticalAlign=top;spacingLeft=4;spacingRight=4;overflow=hidden;rotatable=0;points=[[0,0.5],[1,0.5]];portConstraint=eastwest;fontColor=#000066;" vertex="1" parent="h3WxbCLKSJILhZF0xovk-39">
          <mxGeometry y="26" width="199" height="44" as="geometry" />
        </mxCell>
        <mxCell id="h3WxbCLKSJILhZF0xovk-41" value="" style="line;strokeWidth=1;fillColor=none;align=left;verticalAlign=middle;spacingTop=-1;spacingLeft=3;spacingRight=3;rotatable=0;labelPosition=right;points=[];portConstraint=eastwest;fontColor=#FF8000;strokeColor=#FF8000;" vertex="1" parent="h3WxbCLKSJILhZF0xovk-39">
          <mxGeometry y="70" width="199" height="8" as="geometry" />
        </mxCell>
        <mxCell id="h3WxbCLKSJILhZF0xovk-42" value="newPerson(string): int" style="text;strokeColor=none;fillColor=none;align=left;verticalAlign=top;spacingLeft=4;spacingRight=4;overflow=hidden;rotatable=0;points=[[0,0.5],[1,0.5]];portConstraint=eastwest;fontColor=#000066;" vertex="1" parent="h3WxbCLKSJILhZF0xovk-39">
          <mxGeometry y="78" width="199" height="26" as="geometry" />
        </mxCell>
        <mxCell id="h3WxbCLKSJILhZF0xovk-43" value="Comment" style="swimlane;fontStyle=1;align=center;verticalAlign=top;childLayout=stackLayout;horizontal=1;startSize=26;horizontalStack=0;resizeParent=1;resizeParentMax=0;resizeLast=0;collapsible=1;marginBottom=0;swimlaneFillColor=#ffffff;strokeColor=#FF8000;strokeWidth=1;fillColor=none;fontSize=13;fontColor=#FF8000;" vertex="1" parent="1">
          <mxGeometry x="518" y="730.5" width="200" height="140" as="geometry" />
        </mxCell>
        <mxCell id="h3WxbCLKSJILhZF0xovk-44" value="+ commentID: integer&#xa;+ commentText: string&#xa;+ commentDate: date&#xa;+ commenter: Person *" style="text;strokeColor=none;fillColor=none;align=left;verticalAlign=top;spacingLeft=4;spacingRight=4;overflow=hidden;rotatable=0;points=[[0,0.5],[1,0.5]];portConstraint=eastwest;fontColor=#000066;" vertex="1" parent="h3WxbCLKSJILhZF0xovk-43">
          <mxGeometry y="26" width="200" height="74" as="geometry" />
        </mxCell>
        <mxCell id="h3WxbCLKSJILhZF0xovk-45" value="" style="line;strokeWidth=1;fillColor=none;align=left;verticalAlign=middle;spacingTop=-1;spacingLeft=3;spacingRight=3;rotatable=0;labelPosition=right;points=[];portConstraint=eastwest;fontColor=#000066;strokeColor=#FF8000;" vertex="1" parent="h3WxbCLKSJILhZF0xovk-43">
          <mxGeometry y="100" width="200" height="8" as="geometry" />
        </mxCell>
        <mxCell id="h3WxbCLKSJILhZF0xovk-46" value="+ displayComment(): void" style="text;strokeColor=none;fillColor=none;align=left;verticalAlign=top;spacingLeft=4;spacingRight=4;overflow=hidden;rotatable=0;points=[[0,0.5],[1,0.5]];portConstraint=eastwest;fontColor=#000066;" vertex="1" parent="h3WxbCLKSJILhZF0xovk-43">
          <mxGeometry y="108" width="200" height="32" as="geometry" />
        </mxCell>
      </root>
    </mxGraphModel>
  </diagram>
</mxfile>
